<?xml version="1.0" standalone="no"?>
<!DOCTYPE svg PUBLIC "-//W3C//DTD SVG 20010904//EN"
 "http://www.w3.org/TR/2001/REC-SVG-20010904/DTD/svg10.dtd">
<svg version="1.0" xmlns="http://www.w3.org/2000/svg"
 width="1080.000000pt" height="1080.000000pt" viewBox="0 0 1080.000000 1080.000000"
 preserveAspectRatio="xMidYMid meet">

<g transform="translate(0.000000,1080.000000) scale(0.100000,-0.100000)"
fill="#000000" stroke="none">
<path d="M4285 10354 c-60 -7 -137 -18 -170 -24 -33 -7 -81 -16 -108 -20 -26
-5 -62 -14 -80 -19 -17 -6 -74 -24 -125 -41 -51 -16 -114 -41 -140 -55 -26
-14 -52 -25 -59 -25 -23 0 -201 -99 -313 -175 -103 -69 -244 -182 -262 -210
-3 -5 -23 -28 -45 -50 -73 -77 -152 -170 -207 -245 -30 -41 -59 -80 -64 -86
-35 -40 -87 -123 -129 -209 -28 -55 -77 -154 -111 -220 -66 -131 -135 -295
-176 -420 -15 -44 -31 -89 -36 -100 -5 -11 -12 -36 -16 -55 -3 -19 -10 -39
-14 -45 -4 -5 -10 -23 -13 -40 -2 -16 -14 -68 -26 -115 -68 -275 -95 -477
-107 -810 -6 -167 -4 -206 11 -274 10 -43 20 -74 24 -69 3 5 14 12 24 16 14 5
16 11 7 26 -13 26 -13 31 4 31 8 0 18 9 21 20 10 30 25 24 25 -11 0 -26 3 -30
24 -27 13 1 30 -3 39 -10 12 -11 18 -8 36 14 19 24 21 24 21 7 0 -25 8 -33 26
-26 8 3 14 16 14 29 0 17 6 24 20 24 28 0 27 -19 -20 -333 -22 -147 -40 -288
-40 -313 0 -45 6 -58 129 -301 17 -34 35 -65 41 -68 5 -3 10 -13 10 -21 0 -8
16 -40 35 -70 19 -30 35 -58 35 -63 0 -5 7 -14 15 -21 8 -7 15 -21 15 -30 0
-10 3 -20 8 -22 4 -1 45 -66 91 -143 92 -154 157 -247 183 -264 37 -23 261
-76 445 -105 214 -34 809 -11 893 34 22 12 22 16 16 94 -16 190 -23 533 -19
831 4 219 1 348 -7 410 -19 143 -30 234 -39 325 -4 47 -13 98 -20 113 -14 35
-15 179 -1 157 5 -8 10 -45 10 -81 0 -37 7 -86 15 -109 8 -23 15 -69 15 -101
0 -32 4 -60 9 -63 5 -3 11 -33 13 -66 2 -33 7 -62 10 -66 14 -14 28 9 28 46 0
45 23 140 46 189 16 33 17 33 70 29 47 -4 54 -2 54 14 0 10 5 18 10 18 6 0 10
-6 10 -14 0 -12 152 -14 1018 -11 746 2 1024 5 1040 14 19 10 22 9 26 -11 3
-13 11 -52 19 -88 14 -60 22 -123 47 -355 5 -49 14 -216 20 -370 6 -154 13
-290 16 -303 7 -33 28 -22 35 19 4 19 12 48 17 64 6 17 16 50 22 75 7 25 18
60 26 78 8 18 14 46 14 62 0 16 5 32 10 35 6 3 10 18 10 33 1 15 7 38 15 52 8
14 14 39 15 57 0 17 4 34 9 38 6 3 13 26 17 50 3 25 10 48 15 51 5 3 9 22 9
43 0 21 3 41 7 45 8 8 27 78 42 151 5 22 13 53 20 68 6 16 11 41 11 57 0 16 5
32 10 35 6 3 10 24 10 45 0 21 5 42 10 45 6 4 10 -11 10 -39 0 -25 -4 -48 -10
-51 -5 -3 -10 -23 -10 -43 -1 -20 -7 -48 -15 -62 -8 -14 -14 -42 -15 -62 0
-20 -4 -40 -10 -43 -5 -3 -10 -21 -10 -38 -1 -18 -7 -43 -15 -57 -8 -14 -14
-42 -15 -62 0 -20 -4 -40 -10 -43 -6 -3 -10 -21 -10 -38 -1 -18 -7 -43 -15
-57 -8 -14 -14 -39 -15 -57 0 -17 -4 -35 -10 -38 -5 -3 -10 -20 -10 -36 0 -17
-5 -40 -12 -52 -6 -12 -15 -38 -19 -57 -14 -61 -27 -113 -44 -170 -10 -30 -21
-71 -25 -90 -5 -19 -16 -57 -24 -85 -41 -139 -46 -170 -51 -352 -4 -103 -2
-194 2 -200 12 -17 153 -67 238 -84 47 -9 141 -14 290 -14 246 0 307 8 520 67
157 43 437 185 517 262 26 25 117 159 154 226 10 19 25 43 33 52 21 27 7 335
-29 618 -6 47 -16 123 -21 170 -6 47 -15 110 -21 140 -33 185 -39 261 -22 278
9 8 11 24 7 44 -6 28 -5 30 9 17 9 -8 14 -17 11 -21 -6 -11 249 -10 265 1 10
6 9 10 -7 14 -12 3 -21 12 -21 21 0 22 2 21 66 -20 48 -30 60 -34 80 -26 21
10 25 7 45 -36 13 -26 29 -53 36 -60 14 -15 33 -76 33 -112 0 -14 4 -31 9 -38
19 -31 55 310 46 438 -26 358 -63 640 -107 815 -5 22 -13 58 -18 80 -15 68
-58 227 -78 290 -11 33 -23 80 -26 105 -4 25 -15 63 -26 85 -10 22 -31 76 -45
120 -33 96 -141 312 -201 403 -24 35 -44 66 -44 68 0 9 -108 154 -166 224
-124 150 -367 368 -492 443 -30 18 -66 40 -81 49 -26 17 -64 35 -176 88 -96
45 -127 57 -175 71 -25 7 -49 16 -55 20 -5 4 -44 14 -85 23 -41 10 -95 23
-120 31 -25 8 -79 19 -120 24 -41 6 -93 13 -115 17 -22 3 -84 8 -137 11 -112
5 -119 -1 -62 -57 88 -87 238 -343 325 -555 124 -300 159 -463 204 -951 20
-217 26 -1147 7 -1166 -9 -9 -13 -7 -18 6 -9 25 -255 141 -424 201 -41 15 -86
31 -100 36 -70 25 -406 95 -520 109 -41 5 -109 14 -150 19 -99 13 -473 14
-580 0 -47 -5 -125 -14 -175 -19 -102 -10 -204 -25 -285 -40 -82 -15 -260 -51
-300 -60 -19 -5 -69 -15 -110 -24 -78 -15 -143 -34 -243 -66 -47 -16 -59 -17
-63 -6 -16 41 12 1075 29 1103 3 5 11 54 18 109 21 183 28 229 44 304 9 41 18
89 21 105 4 27 20 85 45 171 5 17 9 38 9 47 0 9 13 55 30 104 47 138 56 162
63 169 4 4 7 14 7 22 0 7 27 69 59 135 51 105 163 278 223 341 10 11 18 23 18
28 0 12 -249 7 -375 -8z m-175 -2680 c0 -8 -5 -12 -10 -9 -6 4 -8 11 -5 16 9
14 15 11 15 -7z m17 -216 c-2 -24 -4 -7 -4 37 0 44 2 63 4 43 2 -21 2 -57 0
-80z m2930 60 c-3 -8 -6 -5 -6 6 -1 11 2 17 5 13 3 -3 4 -12 1 -19z m-26 -135
c-9 -16 -10 -16 -11 4 0 12 3 30 7 40 7 16 8 16 11 -4 2 -12 -1 -30 -7 -40z
m-30 -132 c-6 -11 -11 -35 -11 -55 0 -19 -4 -38 -10 -41 -6 -4 -10 10 -10 34
0 22 5 43 10 46 6 3 10 21 10 40 0 18 3 42 8 52 5 13 8 9 10 -19 2 -20 -2 -46
-7 -57z m1269 -70 c0 -11 -4 -23 -10 -26 -6 -4 -10 5 -10 19 0 14 5 26 10 26
6 0 10 -9 10 -19z m-3970 -27 c0 -14 -4 -23 -10 -19 -5 3 -10 15 -10 26 0 10
5 19 10 19 6 0 10 -12 10 -26z"/>
<path d="M2305 6370 c-3 -5 -10 -98 -16 -206 l-10 -196 41 -64 c55 -84 127
-157 226 -230 92 -68 209 -132 220 -121 10 10 -37 101 -108 208 -20 31 -43 69
-50 85 -7 16 -15 31 -18 34 -3 3 -13 21 -24 40 -16 32 -49 91 -98 178 -10 18
-18 39 -18 46 0 8 -4 16 -8 18 -11 4 -92 167 -92 184 0 17 -37 37 -45 24z"/>
<path d="M8357 5820 c-15 -16 -27 -36 -27 -43 0 -7 -5 -18 -12 -25 -6 -6 -9
-15 -5 -18 12 -13 77 64 77 91 0 14 -2 25 -3 25 -2 0 -16 -13 -30 -30z"/>
<path d="M4805 3695 c-141 -28 -249 -85 -339 -179 -52 -54 -96 -118 -96 -138
0 -6 -6 -19 -14 -27 -25 -30 -50 -125 -49 -194 0 -77 20 -130 72 -195 44 -55
33 -65 -65 -58 -129 10 -243 51 -327 117 -20 17 -42 27 -47 24 -15 -9 -12 -96
5 -129 27 -50 21 -61 -42 -74 -32 -6 -69 -13 -82 -14 -34 -4 -36 -21 -4 -35
137 -59 231 -76 366 -69 61 3 132 7 157 9 l45 2 3 -215 c3 -185 5 -217 20
-233 16 -18 17 -84 20 -835 2 -448 5 -819 7 -823 3 -4 29 -12 57 -19 29 -6 87
-20 128 -30 42 -11 96 -24 120 -29 38 -8 122 -28 243 -59 50 -13 30 -26 -65
-44 -51 -9 -114 -22 -140 -28 -26 -7 -64 -10 -85 -8 -29 2 -38 -1 -41 -14 -3
-17 3 -20 83 -37 229 -47 271 -50 392 -25 43 8 103 20 133 25 30 5 74 14 98
19 24 6 53 8 65 5 12 -2 78 -17 147 -33 257 -60 231 -59 458 -14 88 18 106 36
45 45 -100 15 -274 60 -276 72 -1 6 16 13 38 17 22 4 90 16 150 27 61 12 142
26 180 32 39 6 76 16 83 21 9 8 12 185 12 825 0 711 2 816 15 829 12 13 15 54
15 239 0 194 2 224 16 229 9 3 20 3 25 0 6 -3 83 -5 172 -5 164 0 254 14 349
54 63 26 59 56 -7 57 -53 0 -105 19 -105 38 0 10 5 23 11 29 15 15 24 129 11
137 -6 4 -37 -11 -69 -33 -56 -38 -128 -71 -185 -85 -32 -7 -37 10 -14 47 28
44 38 131 26 214 -13 82 -43 174 -64 196 -7 7 -21 29 -31 50 -29 62 -138 160
-229 207 -65 33 -99 44 -160 51 -43 4 -86 11 -96 14 -9 3 -29 1 -44 -4 -20 -8
-26 -17 -26 -39 0 -15 4 -32 9 -38 5 -5 5 -34 0 -69 -5 -33 -6 -77 -3 -98 5
-31 2 -41 -18 -57 -22 -18 -22 -19 -3 -21 11 -1 24 -1 28 0 5 1 45 -16 91 -38
89 -42 204 -134 237 -189 l20 -34 -40 -38 c-33 -32 -231 -138 -319 -171 l-26
-10 30 -19 c16 -11 36 -20 45 -20 22 0 70 -25 80 -42 5 -7 9 -106 9 -220 0
-216 2 -207 -44 -245 -16 -14 -16 -30 3 -1003 5 -245 10 -491 11 -547 1 -78
-1 -104 -12 -108 -12 -4 -251 -47 -449 -80 -48 -8 -94 -17 -103 -21 -8 -3 -39
1 -68 9 -29 8 -107 27 -173 42 -66 15 -167 37 -225 51 -58 13 -132 30 -165 37
l-60 14 -3 837 c-2 727 -4 840 -17 852 -17 17 -20 116 -9 320 l7 120 61 17
c34 9 82 19 108 23 76 10 72 29 -22 88 -130 82 -250 188 -250 221 0 7 20 28
45 46 25 18 45 36 45 40 0 12 141 75 231 103 76 23 87 29 87 48 0 40 14 132
24 151 6 12 6 23 -1 31 -6 7 -9 29 -7 49 3 32 0 39 -23 51 -39 20 -128 25
-196 11z"/>
<path d="M5139 3649 c-2 -21 -5 -32 -11 -49 -8 -19 -15 -60 -29 -170 l-11 -86
53 -75 c30 -41 59 -86 65 -99 19 -42 41 -103 54 -150 7 -25 14 -51 16 -59 3
-10 13 -12 42 -6 44 10 112 10 163 0 l36 -7 48 99 c40 83 60 111 132 182 l85
84 2 158 1 159 -57 0 c-31 0 -70 -5 -85 -12 -53 -23 -152 -99 -173 -134 -12
-18 -25 -34 -29 -34 -5 0 -20 17 -33 38 -59 88 -154 156 -235 169 -24 4 -33 2
-34 -8z"/>
<path d="M5350 2480 c0 -5 7 -10 15 -10 8 0 15 5 15 10 0 6 -7 10 -15 10 -8 0
-15 -4 -15 -10z"/>
<path d="M5230 2460 c-12 -8 -9 -10 13 -10 16 0 26 4 22 10 -8 12 -16 12 -35
0z"/>
<path d="M4958 2403 c7 -3 16 -2 19 1 4 3 -2 6 -13 5 -11 0 -14 -3 -6 -6z"/>
</g>
</svg>
